<?xml version="1.0" encoding="utf-8"?>
<!-- Generator: Adobe Illustrator 14.0.0, SVG Export Plug-In . SVG Version: 6.00 Build 43363)  -->
<!DOCTYPE svg PUBLIC "-//W3C//DTD SVG 1.1//EN" "http://www.w3.org/Graphics/SVG/1.1/DTD/svg11.dtd">
<svg version="1.1" id="Layer_1" xmlns="http://www.w3.org/2000/svg" xmlns:xlink="http://www.w3.org/1999/xlink" x="0px" y="0px"
	 width="32px" height="32px" viewBox="0 0 32 32" enable-background="new 0 0 32 32" xml:space="preserve">
<g>
	<polygon fill="#404040" points="11.801,12.818 11.749,12.969 17.214,17.788 18.874,12.818 	"/>
	<path fill="#404040" d="M22.602,18.39l-0.837-1.513c-0.423,0.405-0.735,0.926-0.888,1.513H22.602z"/>
	<path fill="#404040" d="M9.891,16.595l-1.105,2.874c-0.123,0.314-0.423,0.509-0.742,0.509c-0.096,0-0.192-0.017-0.287-0.054
		c-0.314-0.121-0.508-0.421-0.508-0.74c0-0.096,0.016-0.193,0.05-0.286l1.105-2.876c-0.118-0.014-0.239-0.022-0.361-0.022
		c-1.756,0-3.185,1.429-3.185,3.185c0,1.754,1.429,3.18,3.185,3.18c1.754,0,3.182-1.426,3.182-3.18
		C11.225,18.117,10.697,17.174,9.891,16.595z"/>
	<path fill="#404040" d="M26.666,0.001H5.335C2.401,0.001,0,2.4,0,5.334v21.331c0,2.936,2.401,5.334,5.335,5.334h21.331
		c2.935,0,5.334-2.398,5.334-5.334V5.334C32,2.4,29.601,0.001,26.666,0.001z M23.955,23.957c-2.361,0-4.326-1.725-4.705-3.979h-1.66
		c-0.19,0-0.379-0.069-0.526-0.198l-6.269-5.531l-0.319,0.828c1.4,0.834,2.341,2.362,2.341,4.107c0,2.631-2.143,4.773-4.773,4.773
		c-2.634,0-4.773-2.143-4.773-4.773c0-2.634,2.14-4.774,4.773-4.774c0.324,0,0.641,0.034,0.949,0.094l2.287-5.949
		c0.118-0.307,0.412-0.51,0.742-0.51h2.389c0.437,0,0.794,0.356,0.794,0.794c0,0.441-0.357,0.798-0.794,0.798h-1.842l-0.611,1.59
		h7.447l0.265-0.794h-0.486c-0.438,0-0.794-0.356-0.794-0.796c0-0.441,0.355-0.798,0.794-0.798h3.184
		c0.438,0,0.796,0.356,0.796,0.798c0,0.439-0.358,0.796-0.796,0.796h-1.021l-0.5,1.511l1.521,2.737
		c0.498-0.175,1.032-0.271,1.59-0.271c2.631,0,4.773,2.141,4.773,4.774C28.729,21.814,26.586,23.957,23.955,23.957z"/>
	<path fill="#404040" d="M23.955,15.999c-0.274,0-0.545,0.042-0.801,0.108l1.497,2.688c0.068,0.122,0.098,0.254,0.098,0.389
		c0,0.138-0.037,0.277-0.106,0.402c-0.146,0.243-0.404,0.392-0.688,0.392h-3.078c0.356,1.372,1.6,2.386,3.078,2.386
		c1.754,0,3.182-1.426,3.182-3.18C27.137,17.428,25.709,15.999,23.955,15.999z"/>
	<path fill="#404040" d="M20.159,13.989l-1.467,4.4h0.558c0.198-1.182,0.83-2.215,1.725-2.933L20.159,13.989z"/>
</g>
</svg>
