<?xml version="1.0" encoding="utf-8"?>
<!-- Generator: Adobe Illustrator 14.0.0, SVG Export Plug-In . SVG Version: 6.00 Build 43363)  -->
<!DOCTYPE svg PUBLIC "-//W3C//DTD SVG 1.1//EN" "http://www.w3.org/Graphics/SVG/1.1/DTD/svg11.dtd">
<svg version="1.1" id="Layer_1" xmlns="http://www.w3.org/2000/svg" xmlns:xlink="http://www.w3.org/1999/xlink" x="0px" y="0px"
	 width="16px" height="16px" viewBox="0 0 16 16" enable-background="new 0 0 16 16" xml:space="preserve">
<g>
	<path d="M15.88,9.153c-0.074,1.939-0.318,2.773-1.08,3.534c-1.104,1.129-2.528,1.424-7.093,1.424c-3.559,0-5.056-0.246-6.209-1.08
		C0.369,12.246,0,10.994,0,7.926c0-2.798,0.344-4.025,1.375-4.859c1.104-0.908,2.626-1.178,6.553-1.178
		c3.854,0,5.547,0.294,6.651,1.202c0.933,0.736,1.252,1.645,1.326,3.829h-4.419c-0.147-1.325-1.006-1.768-3.559-1.768
		c-3.019,0-3.583,0.466-3.583,2.896c0,1.521,0.245,2.11,1.03,2.43c0.516,0.221,1.449,0.344,2.602,0.344
		c2.552,0,3.289-0.344,3.485-1.669H15.88z"/>
</g>
</svg>
