<?xml version="1.0" encoding="utf-8"?>
<!-- Generator: Adobe Illustrator 14.0.0, SVG Export Plug-In . SVG Version: 6.00 Build 43363)  -->
<!DOCTYPE svg PUBLIC "-//W3C//DTD SVG 1.1//EN" "http://www.w3.org/Graphics/SVG/1.1/DTD/svg11.dtd">
<svg version="1.1" id="Layer_1" xmlns="http://www.w3.org/2000/svg" xmlns:xlink="http://www.w3.org/1999/xlink" x="0px" y="0px"
	 width="16px" height="16px" viewBox="0 0 16 16" enable-background="new 0 0 16 16" xml:space="preserve">
<g>
	<path d="M9.688,4.97c-0.495,0-0.869,0.044-1.122,0.099v4.567c0.243,0.032,0.595,0.043,0.969,0.043c2.057,0,2.869-0.989,2.869-2.281
		C12.404,5.648,11.477,4.97,9.688,4.97z"/>
	<path d="M7.915,0C3.543,0,0,3.544,0,7.916c0,4.372,3.543,7.915,7.915,7.915c4.371,0,7.915-3.543,7.915-7.915
		C15.83,3.544,12.286,0,7.915,0z M5.947,2.959c0.447,0,0.754,0.334,0.754,0.768c0,0.419-0.293,0.755-0.782,0.755
		c-0.447,0-0.74-0.335-0.74-0.755C5.178,3.308,5.485,2.959,5.947,2.959z M6.411,5.578v4.805H5.443V5.578H6.411z M8.01,12.078
		c-3.504,0-6.344-1.365-6.344-3.049c0-0.991,0.983-1.872,2.507-2.429C2.775,7.111,2.25,7.988,2.25,8.897
		c0,1.542,2.604,2.794,5.816,2.794c1.693,0,3.547-0.044,4.609-0.597C11.518,11.699,9.855,12.078,8.01,12.078z M12.472,9.596
		c-0.704,0.692-1.683,0.854-3.124,0.854c-0.692,0-1.253-0.032-1.738-0.087V4.376c0.583-0.099,1.276-0.165,2.035-0.165
		c1.375,0,2.343,0.386,2.965,1.007c0.516,0.516,0.797,0.953,0.797,2.049C13.406,7.279,13.417,8.65,12.472,9.596z"/>
</g>
</svg>
