<?xml version="1.0" encoding="utf-8"?>
<!-- Generator: Adobe Illustrator 14.0.0, SVG Export Plug-In . SVG Version: 6.00 Build 43363)  -->
<!DOCTYPE svg PUBLIC "-//W3C//DTD SVG 1.1//EN" "http://www.w3.org/Graphics/SVG/1.1/DTD/svg11.dtd">
<svg version="1.1" id="Layer_1" xmlns="http://www.w3.org/2000/svg" xmlns:xlink="http://www.w3.org/1999/xlink" x="0px" y="0px"
	 width="32px" height="32px" viewBox="0 0 32 32" enable-background="new 0 0 32 32" xml:space="preserve">
<path fill="#404040" d="M28.123,0.404H3.877C1.737,0.404,0,2.142,0,4.283v23.434c0,2.143,1.737,3.879,3.877,3.879h24.246
	c2.141,0,3.877-1.736,3.877-3.879V4.283C32,2.142,30.264,0.404,28.123,0.404z M21.939,16.175c0,3.302-2.677,5.981-5.98,5.981
	c-3.302,0-5.98-2.68-5.98-5.981c0-0.437,0.05-0.867,0.143-1.28l0,0c0.071-0.333,0.172-0.653,0.297-0.962
	c0.001-0.005,0.004-0.008,0.004-0.012c0.046-0.118,0.103-0.232,0.158-0.347c0.023-0.045,0.045-0.097,0.069-0.144
	c0.055-0.104,0.112-0.204,0.169-0.301c0.033-0.056,0.068-0.11,0.101-0.166c0.057-0.09,0.119-0.181,0.184-0.271
	c0.041-0.057,0.083-0.113,0.126-0.17c0.065-0.081,0.13-0.162,0.199-0.244c0.049-0.057,0.102-0.109,0.151-0.167
	c0.07-0.071,0.136-0.147,0.208-0.217c0.061-0.061,0.124-0.113,0.188-0.17c0.069-0.059,0.135-0.124,0.208-0.184
	c0.131-0.107,0.267-0.208,0.406-0.303c0.063-0.044,0.125-0.08,0.19-0.118c0.091-0.058,0.181-0.115,0.274-0.17
	c0.068-0.036,0.139-0.069,0.207-0.105c0.095-0.047,0.188-0.095,0.287-0.139c0.069-0.029,0.143-0.058,0.216-0.086
	c0.101-0.041,0.2-0.077,0.301-0.112c0.074-0.023,0.146-0.048,0.22-0.069c0.108-0.032,0.217-0.059,0.329-0.084
	c0.071-0.017,0.14-0.034,0.214-0.048c0.122-0.021,0.247-0.041,0.371-0.054c0.063-0.011,0.125-0.02,0.187-0.027
	c0.19-0.017,0.38-0.028,0.575-0.028c0.194,0,0.384,0.012,0.574,0.028c0.062,0.008,0.124,0.017,0.187,0.027
	c0.124,0.014,0.249,0.033,0.373,0.054c0.072,0.015,0.143,0.032,0.212,0.048c0.113,0.026,0.224,0.053,0.33,0.084
	c0.073,0.021,0.146,0.045,0.219,0.069c0.1,0.034,0.204,0.071,0.304,0.112c0.072,0.028,0.145,0.057,0.213,0.086
	c0.099,0.043,0.193,0.092,0.29,0.141c0.066,0.034,0.136,0.067,0.204,0.103c0.094,0.056,0.188,0.114,0.281,0.172
	c0.059,0.039,0.123,0.072,0.182,0.116c0.141,0.095,0.278,0.196,0.41,0.303c0.066,0.058,0.131,0.119,0.199,0.176
	c0.062,0.061,0.131,0.118,0.192,0.181c0.072,0.066,0.139,0.139,0.206,0.209c0.052,0.058,0.104,0.115,0.158,0.175
	c0.066,0.079,0.129,0.16,0.193,0.241c0.043,0.058,0.086,0.113,0.129,0.174c0.062,0.086,0.125,0.173,0.182,0.265
	c0.036,0.057,0.069,0.115,0.103,0.169c0.058,0.101,0.116,0.196,0.167,0.3c0.027,0.047,0.047,0.098,0.073,0.147
	c0.054,0.113,0.108,0.225,0.155,0.343c0.002,0.004,0.004,0.012,0.008,0.016c0.121,0.307,0.225,0.629,0.293,0.958l0,0
	C21.889,15.308,21.939,15.738,21.939,16.175z M28.336,26.965c0,0.713-0.578,1.292-1.292,1.292H4.955
	c-0.712,0-1.291-0.579-1.291-1.292v-12.07h3.51c-0.06,0.419-0.104,0.844-0.104,1.28c0,4.903,3.989,8.888,8.89,8.888
	c4.9,0,8.888-3.984,8.888-8.888c0-0.436-0.039-0.861-0.104-1.28h3.592V26.965z M28.336,8.241c0,0.715-0.578,1.293-1.292,1.293H23.92
	c-0.716,0-1.295-0.579-1.295-1.293V5.092c0-0.715,0.579-1.294,1.295-1.294h3.124c0.714,0,1.292,0.579,1.292,1.294V8.241z"/>
</svg>
