<?xml version="1.0" encoding="utf-8"?>
<!-- Generator: Adobe Illustrator 14.0.0, SVG Export Plug-In . SVG Version: 6.00 Build 43363)  -->
<!DOCTYPE svg PUBLIC "-//W3C//DTD SVG 1.1//EN" "http://www.w3.org/Graphics/SVG/1.1/DTD/svg11.dtd">
<svg version="1.1" id="Layer_1" xmlns="http://www.w3.org/2000/svg" xmlns:xlink="http://www.w3.org/1999/xlink" x="0px" y="0px"
	 width="32px" height="32px" viewBox="0 0 32 32" enable-background="new 0 0 32 32" xml:space="preserve">
<path fill="#404040" d="M26.666,0H5.334C2.401,0,0,2.399,0,5.334v21.331C0,29.602,2.401,32,5.334,32h21.332
	C29.6,32,32,29.602,32,26.665V5.334C32,2.399,29.6,0,26.666,0z M28.481,11.625c-0.376,1.312-1.187,3.037-3.593,3.612
	c-0.002,0.001-0.004,0-0.006,0c0.061,0.438,0.099,0.882,0.099,1.336c0,5.656-4.812,10.239-10.75,10.239
	c-5.937,0-10.749-4.583-10.749-10.239c0-5.654,4.812-10.239,10.749-10.239c1.042,0,2.047,0.148,3,0.412v5.948
	c-0.668-0.357-1.458-0.569-2.312-0.569c-2.381,0-5.75,2.465-5.75,4.448c0,1.985,0.563,4.676,5.501,4.176
	c2.37-0.24,4.562-2.499,4.562-5.03V7.512c0,0,1.188,0.55,4.125,2.176C26.293,11.312,28.855,10.312,28.481,11.625z"/>
</svg>
