<?xml version="1.0" encoding="utf-8"?>
<!-- Generator: Adobe Illustrator 14.0.0, SVG Export Plug-In . SVG Version: 6.00 Build 43363)  -->
<!DOCTYPE svg PUBLIC "-//W3C//DTD SVG 1.1//EN" "http://www.w3.org/Graphics/SVG/1.1/DTD/svg11.dtd">
<svg version="1.1" id="Layer_1" xmlns="http://www.w3.org/2000/svg" xmlns:xlink="http://www.w3.org/1999/xlink" x="0px" y="0px"
	 width="60em" height="480em" viewBox="0 0 60 480" enable-background="new 0 0 60 480" xml:space="preserve">
<path fill="#404040" d="M51.324,33.382H35.621c-1.387,0-2.512,1.126-2.512,2.513v15.178c0,1.388,1.125,2.513,2.512,2.513h15.703
	c1.387,0,2.512-1.125,2.512-2.513V35.895C53.836,34.508,52.711,33.382,51.324,33.382z M47.32,43.597
	c0,2.139-1.734,3.874-3.873,3.874s-3.873-1.735-3.873-3.874c0-0.283,0.031-0.562,0.092-0.829l0,0
	c0.045-0.216,0.111-0.423,0.191-0.623c0.002-0.003,0.004-0.005,0.004-0.008c0.029-0.076,0.066-0.15,0.102-0.225
	c0.016-0.029,0.029-0.062,0.045-0.093c0.035-0.067,0.072-0.132,0.109-0.195c0.021-0.036,0.045-0.071,0.066-0.107
	c0.037-0.059,0.076-0.117,0.119-0.175c0.025-0.037,0.053-0.073,0.082-0.11c0.041-0.053,0.084-0.105,0.129-0.158
	c0.031-0.037,0.064-0.071,0.098-0.108c0.045-0.046,0.088-0.096,0.135-0.141c0.039-0.039,0.08-0.073,0.121-0.11
	c0.045-0.038,0.088-0.08,0.135-0.119c0.084-0.069,0.172-0.135,0.262-0.196c0.041-0.028,0.082-0.052,0.123-0.076
	c0.059-0.037,0.117-0.074,0.178-0.11c0.045-0.023,0.09-0.045,0.135-0.068c0.061-0.03,0.121-0.062,0.186-0.09
	c0.045-0.019,0.092-0.037,0.139-0.056c0.066-0.026,0.131-0.05,0.195-0.072c0.049-0.016,0.096-0.031,0.143-0.045
	c0.07-0.021,0.141-0.038,0.213-0.055c0.047-0.011,0.092-0.021,0.139-0.031c0.08-0.014,0.16-0.026,0.24-0.035
	c0.041-0.007,0.082-0.013,0.121-0.018c0.123-0.011,0.246-0.019,0.373-0.019c0.125,0,0.248,0.008,0.371,0.019
	c0.041,0.005,0.08,0.011,0.121,0.018c0.08,0.009,0.162,0.021,0.242,0.035c0.047,0.01,0.092,0.021,0.137,0.031
	c0.074,0.017,0.145,0.034,0.215,0.055c0.047,0.014,0.094,0.029,0.141,0.045c0.064,0.021,0.133,0.046,0.197,0.072
	c0.047,0.019,0.094,0.037,0.139,0.056c0.062,0.028,0.125,0.06,0.188,0.092c0.043,0.021,0.088,0.043,0.131,0.066
	c0.062,0.036,0.123,0.074,0.184,0.111c0.037,0.025,0.078,0.047,0.117,0.075c0.092,0.062,0.18,0.127,0.266,0.196
	c0.043,0.037,0.084,0.077,0.129,0.114c0.041,0.039,0.084,0.076,0.125,0.117c0.047,0.043,0.09,0.09,0.133,0.136
	c0.033,0.037,0.068,0.074,0.102,0.113c0.045,0.051,0.084,0.104,0.127,0.156c0.027,0.037,0.055,0.073,0.082,0.112
	c0.041,0.056,0.082,0.112,0.119,0.172c0.023,0.037,0.045,0.074,0.066,0.109c0.037,0.065,0.074,0.127,0.107,0.194
	c0.018,0.03,0.031,0.063,0.047,0.096c0.035,0.073,0.07,0.146,0.102,0.222c0.002,0.003,0.002,0.008,0.004,0.011
	c0.08,0.198,0.146,0.407,0.191,0.62l0,0C47.287,43.036,47.32,43.314,47.32,43.597z M51.463,50.585c0,0.462-0.375,0.837-0.836,0.837
	H36.318c-0.461,0-0.836-0.375-0.836-0.837v-7.817h2.273c-0.039,0.271-0.066,0.547-0.066,0.829c0,3.176,2.584,5.757,5.758,5.757
	s5.756-2.581,5.756-5.757c0-0.282-0.025-0.558-0.066-0.829h2.326V50.585z M51.463,38.458c0,0.463-0.375,0.838-0.836,0.838h-2.023
	c-0.465,0-0.84-0.375-0.84-0.838v-2.04c0-0.463,0.375-0.838,0.84-0.838h2.023c0.461,0,0.836,0.375,0.836,0.838V38.458z"/>
<path fill="#404040" d="M50.201,93.505H36.746c-1.85,0-3.365,1.514-3.365,3.364v13.454c0,1.852,1.516,3.364,3.365,3.364h13.455
	c1.85,0,3.363-1.513,3.363-3.364V96.869C53.564,95.019,52.051,93.505,50.201,93.505z M47.43,109.318
	c-0.549,0.26-1.047,0.441-1.492,0.544c-0.443,0.105-0.926,0.157-1.443,0.157c-0.586,0-1.105-0.074-1.557-0.223
	s-0.836-0.36-1.154-0.634c-0.32-0.274-0.541-0.566-0.664-0.876s-0.184-0.757-0.184-1.344v-4.508h-1.42v-1.816
	c0.504-0.165,0.936-0.4,1.297-0.706c0.359-0.306,0.648-0.674,0.865-1.103c0.219-0.43,0.367-0.976,0.449-1.638h1.828v3.246h3.049
	v2.017h-3.049v3.295c0,0.745,0.039,1.223,0.119,1.435c0.078,0.211,0.225,0.381,0.439,0.507c0.285,0.17,0.609,0.255,0.975,0.255
	c0.65,0,1.297-0.211,1.941-0.634V109.318z"/>
<path fill="#404040" d="M50.199,153.607H36.745c-1.851,0-3.364,1.514-3.364,3.365v13.453c0,1.852,1.514,3.365,3.364,3.365h13.454
	c1.851,0,3.364-1.514,3.364-3.365v-13.453C53.563,155.121,52.05,153.607,50.199,153.607z M49.773,160.467
	c0.006,0.141,0.01,0.279,0.01,0.422c0,4.295-3.271,9.25-9.25,9.25c-1.836,0-3.545-0.539-4.983-1.461
	c0.255,0.029,0.513,0.045,0.774,0.045c1.524,0,2.926-0.52,4.038-1.391c-1.423-0.027-2.624-0.967-3.036-2.258
	c0.197,0.035,0.402,0.057,0.611,0.057c0.297,0,0.584-0.039,0.856-0.113c-1.487-0.299-2.608-1.611-2.608-3.188
	c0-0.014,0-0.027,0-0.041c0.439,0.244,0.941,0.389,1.474,0.406c-0.872-0.582-1.446-1.578-1.446-2.707
	c0-0.596,0.16-1.152,0.439-1.633c1.604,1.967,4,3.262,6.701,3.396c-0.055-0.238-0.085-0.486-0.085-0.74
	c0-1.797,1.456-3.252,3.251-3.252c0.936,0,1.781,0.395,2.373,1.027c0.742-0.146,1.437-0.416,2.064-0.789
	c-0.242,0.76-0.758,1.396-1.429,1.799c0.657-0.078,1.284-0.254,1.866-0.514C50.959,159.436,50.408,160.01,49.773,160.467z"/>
<path fill="#404040" d="M50.199,213.71H36.745c-1.851,0-3.364,1.514-3.364,3.364v13.454c0,1.852,1.514,3.364,3.364,3.364h13.454
	c1.851,0,3.364-1.513,3.364-3.364v-13.454C53.563,215.224,52.05,213.71,50.199,213.71z M51.344,221.042
	c-0.236,0.828-0.748,1.916-2.266,2.278c-0.001,0.001-0.002,0-0.004,0c0.039,0.276,0.062,0.557,0.062,0.843
	c0,3.567-3.035,6.458-6.78,6.458c-3.744,0-6.779-2.891-6.779-6.458c0-3.566,3.035-6.458,6.779-6.458c0.657,0,1.291,0.094,1.892,0.26
	v3.752c-0.422-0.226-0.92-0.359-1.458-0.359c-1.502,0-3.626,1.555-3.626,2.806c0,1.252,0.354,2.949,3.469,2.634
	c1.494-0.151,2.877-1.576,2.877-3.173v-5.176c0,0,0.75,0.347,2.602,1.372C49.965,220.845,51.58,220.214,51.344,221.042z"/>
<g>
	<polygon fill="#404040" points="40.825,281.896 40.792,281.991 44.239,285.031 45.286,281.896 	"/>
	<path fill="#404040" d="M47.638,285.41l-0.528-0.954c-0.267,0.256-0.464,0.584-0.56,0.954H47.638z"/>
	<path fill="#404040" d="M39.62,284.278l-0.697,1.812c-0.077,0.198-0.267,0.321-0.468,0.321c-0.061,0-0.121-0.011-0.181-0.034
		c-0.198-0.076-0.32-0.266-0.32-0.467c0-0.061,0.01-0.122,0.031-0.181l0.697-1.813c-0.074-0.009-0.15-0.015-0.228-0.015
		c-1.107,0-2.009,0.901-2.009,2.009c0,1.106,0.901,2.006,2.009,2.006c1.106,0,2.007-0.899,2.007-2.006
		C40.462,285.238,40.129,284.644,39.62,284.278z"/>
	<path fill="#404040" d="M50.201,273.812H36.747c-1.851,0-3.365,1.514-3.365,3.364v13.454c0,1.852,1.515,3.364,3.365,3.364h13.454
		c1.851,0,3.364-1.513,3.364-3.364v-13.454C53.565,275.325,52.052,273.812,50.201,273.812z M48.491,288.922
		c-1.489,0-2.729-1.088-2.968-2.51h-1.047c-0.12,0-0.239-0.044-0.332-0.125l-3.954-3.489l-0.201,0.522
		c0.883,0.526,1.477,1.49,1.477,2.591c0,1.659-1.352,3.011-3.011,3.011c-1.661,0-3.011-1.352-3.011-3.011
		c0-1.661,1.35-3.012,3.011-3.012c0.204,0,0.404,0.021,0.599,0.06l1.442-3.753c0.074-0.193,0.26-0.321,0.468-0.321h1.507
		c0.275,0,0.501,0.225,0.501,0.501c0,0.278-0.226,0.503-0.501,0.503h-1.162l-0.386,1.003h4.697l0.167-0.501H45.48
		c-0.276,0-0.501-0.225-0.501-0.502c0-0.278,0.225-0.503,0.501-0.503h2.008c0.276,0,0.502,0.225,0.502,0.503
		c0,0.277-0.226,0.502-0.502,0.502h-0.644l-0.315,0.953l0.959,1.727c0.314-0.11,0.651-0.171,1.003-0.171
		c1.659,0,3.011,1.351,3.011,3.012C51.502,287.57,50.15,288.922,48.491,288.922z"/>
	<path fill="#404040" d="M48.491,283.902c-0.173,0-0.344,0.026-0.505,0.068l0.944,1.695c0.043,0.077,0.062,0.16,0.062,0.245
		c0,0.087-0.023,0.175-0.067,0.254c-0.092,0.153-0.255,0.247-0.434,0.247H46.55c0.225,0.865,1.009,1.505,1.941,1.505
		c1.106,0,2.007-0.899,2.007-2.006C50.498,284.804,49.598,283.902,48.491,283.902z"/>
	<path fill="#404040" d="M46.097,282.635l-0.925,2.775h0.352c0.125-0.745,0.523-1.396,1.088-1.85L46.097,282.635z"/>
</g>
<path fill="#404040" d="M24.326,332.438v-0.709c0-0.955,0.774-1.729,1.729-1.729h24.207c0.955,0,1.729,0.774,1.729,1.729v0.709
	l-13.833,8.646L24.326,332.438z M38.617,342.837c-0.14,0.088-0.299,0.132-0.458,0.132s-0.318-0.044-0.458-0.132l-13.375-8.359
	v14.543c0,0.955,0.774,1.729,1.729,1.729h24.207c0.955,0,1.729-0.774,1.729-1.729v-14.543L38.617,342.837z"/>
<path fill="#404040" d="M55.193,456.202c-0.913,0.404-1.896,0.678-2.925,0.801c1.05-0.63,1.858-1.629,2.24-2.817
	c-0.984,0.583-2.075,1.007-3.237,1.236c-0.929-0.99-2.252-1.609-3.718-1.609c-2.813,0-5.095,2.282-5.095,5.095
	c0,0.398,0.046,0.787,0.134,1.159c-4.234-0.211-7.987-2.238-10.501-5.321c-0.438,0.752-0.689,1.628-0.689,2.562
	c0,1.768,0.898,3.326,2.267,4.239c-0.835-0.025-1.621-0.255-2.308-0.636c-0.001,0.021-0.001,0.041-0.001,0.063
	c0,2.468,1.757,4.527,4.087,4.995c-0.428,0.117-0.877,0.179-1.343,0.179c-0.328,0-0.647-0.032-0.959-0.091
	c0.648,2.022,2.529,3.497,4.76,3.537c-1.744,1.366-3.94,2.182-6.327,2.182c-0.411,0-0.816-0.025-1.215-0.071
	c2.254,1.445,4.933,2.288,7.811,2.288c9.369,0,14.493-7.763,14.493-14.495c0-0.221-0.006-0.44-0.016-0.658
	C53.647,458.12,54.511,457.223,55.193,456.202z"/>
<g>
	<path fill="#404040" d="M47.158,404.079h-3.691h-3.691c0,0-2.223,0.065-2.223,2.548c0,2.483,1.732,2.908,2.745,3.137
		c0.327,0.054,3.169,0,3.169,0s2.841,0.054,3.169,0c1.012-0.229,2.743-0.653,2.743-3.137
		C49.379,404.145,47.158,404.079,47.158,404.079z M41.212,408.391c-0.631,0-1.143-0.775-1.143-1.73c0-0.957,0.512-1.731,1.143-1.731
		s1.144,0.774,1.144,1.731C42.355,407.615,41.843,408.391,41.212,408.391z M46.111,408.391c-0.63,0-1.142-0.775-1.142-1.73
		c0-0.957,0.512-1.731,1.142-1.731c0.632,0,1.144,0.774,1.144,1.731C47.255,407.615,46.743,408.391,46.111,408.391z"/>
	<path fill="#404040" d="M50.201,394.06H36.747c-1.851,0-3.365,1.514-3.365,3.364v13.454c0,1.852,1.515,3.364,3.365,3.364h13.454
		c1.851,0,3.364-1.513,3.364-3.364v-13.454C53.565,395.573,52.052,394.06,50.201,394.06z M43.467,410.792
		c-8.772,0-7.989-5.243-7.989-5.782c0-0.54,0.051-2.107,1.177-3.744c-0.293-2.371,0.343-3.116,0.343-3.116s1.274-0.049,3.332,1.18
		c0.606-0.108,1.846-0.188,3.138-0.186c1.29-0.003,2.53,0.077,3.136,0.186c2.058-1.229,3.331-1.18,3.331-1.18
		s0.638,0.745,0.344,3.116c1.127,1.637,1.175,3.204,1.175,3.744C51.452,405.549,52.237,410.792,43.467,410.792z"/>
</g>
</svg>
